<svg width="58" height="86" viewBox="0 0 58 86" fill="none" xmlns="http://www.w3.org/2000/svg">
<path d="M7.59047 32.4634H0V45.8924V58.0819H7.59047V32.4634Z" fill="#F1F1F1"/>
<path d="M16.3795 32.4634V45.8924V58.0819H24.1697V32.4634H16.3795Z" fill="#F1F1F1"/>
<path d="M32.9586 32.4634V45.8924V58.0819H40.5491V32.4634H32.9586Z" fill="#F1F1F1"/>
<path d="M0 27.5049H28.5641H57.1283V20.2739H0V27.5049Z" fill="#F1F1F1"/>
<path d="M28.5641 0.646851L0 10.3571V18.0013L28.5641 8.08447L57.1283 18.0013V10.3571L28.5641 0.646851Z" fill="#F1F1F1"/>
<path d="M57.1283 57.4621C56.9285 57.8753 54.132 62.8337 35.9548 62.8337H21.1734C2.39699 63.0403 0.399498 65.5195 0 65.7261V73.1638C0.399498 72.9572 2.39699 70.4779 21.1734 70.2713H35.9548C54.132 70.2713 56.9285 65.3129 57.1283 64.8997V57.4621Z" fill="#F1F1F1"/>
<path d="M57.1283 69.6515C56.9285 70.0647 54.132 75.0231 35.9548 75.0231H21.1734C2.39699 75.2297 0.399498 77.7089 0 77.9155V85.3531C0.399498 85.1465 2.39699 82.6673 21.1734 82.4607H35.9548C54.132 82.4607 56.9285 77.5023 57.1283 77.0891V69.6515Z" fill="#F1F1F1"/>
<path d="M49.3381 32.4634V56.8423C55.5304 55.3961 56.9286 53.1235 56.9286 52.7103V32.4634H49.3381Z" fill="#F1F1F1"/>
</svg>
