<svg width="57" height="57" viewBox="0 0 57 57" fill="none" xmlns="http://www.w3.org/2000/svg">
<path d="M28.3565 5.6713C22.34 5.6713 16.5699 8.06134 12.3156 12.3156C8.06134 16.5699 5.6713 22.34 5.6713 28.3565C5.6713 34.373 8.06134 40.1431 12.3156 44.3974C16.5699 48.6517 22.34 51.0417 28.3565 51.0417C34.373 51.0417 40.1431 48.6517 44.3974 44.3974C48.6517 40.1431 51.0417 34.373 51.0417 28.3565C51.0417 22.34 48.6517 16.5699 44.3974 12.3156C40.1431 8.06134 34.373 5.6713 28.3565 5.6713ZM0 28.3565C0 12.6952 12.6952 0 28.3565 0C44.0178 0 56.713 12.6952 56.713 28.3565C56.713 44.0178 44.0178 56.713 28.3565 56.713C12.6952 56.713 0 44.0178 0 28.3565Z" fill="#012D5A"/>
<path d="M28.3565 22.6852C29.1086 22.6852 29.8298 22.9839 30.3616 23.5157C30.8934 24.0475 31.1922 24.7688 31.1922 25.5208V42.5347C31.1922 43.2868 30.8934 44.0081 30.3616 44.5399C29.8298 45.0716 29.1086 45.3704 28.3565 45.3704C27.6044 45.3704 26.8832 45.0716 26.3514 44.5399C25.8196 44.0081 25.5209 43.2868 25.5209 42.5347V25.5208C25.5209 24.7688 25.8196 24.0475 26.3514 23.5157C26.8832 22.9839 27.6044 22.6852 28.3565 22.6852ZM32.61 15.5961C32.61 16.7242 32.1618 17.806 31.3642 18.6037C30.5665 19.4014 29.4846 19.8495 28.3565 19.8495C27.2284 19.8495 26.1465 19.4014 25.3488 18.6037C24.5512 17.806 24.103 16.7242 24.103 15.5961C24.103 14.468 24.5512 13.3861 25.3488 12.5884C26.1465 11.7907 27.2284 11.3426 28.3565 11.3426C29.4846 11.3426 30.5665 11.7907 31.3642 12.5884C32.1618 13.3861 32.61 14.468 32.61 15.5961Z" fill="#012D5A"/>
</svg>
